inDegrees=no
num_controls=7
num_derivatives=13
num_iterations=171
num_multipliers=7
num_parameters=0
num_slacks=7
num_states=26
objective=5.195534
objective_accelerations=0.217926
objective_balance=0.009604
objective_effort=0.261769
objective_height=4.592637
objective_ligament=0.113598
solver_duration=1505.976988
status=Solve_Succeeded
success=true
DataType=double
version=3
OpenSimVersion=4.4-2022-07-23-0e9fedc
endheader
time	/jointset/ground_pelvis/pelvis_tilt/value	/jointset/ground_pelvis/pelvis_tx/value	/jointset/ground_pelvis/pelvis_ty/value	/jointset/hip_r/hip_flexion_r/value	/jointset/hip_r/hip_adduction_r/value	/jointset/hip_r/hip_rotation_r/value	/jointset/back/lumbar_extension/value	/jointset/patellofemoral_r/patellar_flexion_r/value	/jointset/knee_r/knee_flexion_r/value	/jointset/knee_r/knee_adduction_r/value	/jointset/knee_r/knee_rotation_r/value	/jointset/ankle_r/ankle_angle_r/value	/jointset/subtalar_r/subtalar_angle_r/value	/jointset/ground_pelvis/pelvis_tilt/speed	/jointset/ground_pelvis/pelvis_tx/speed	/jointset/ground_pelvis/pelvis_ty/speed	/jointset/hip_r/hip_flexion_r/speed	/jointset/hip_r/hip_adduction_r/speed	/jointset/hip_r/hip_rotation_r/speed	/jointset/back/lumbar_extension/speed	/jointset/patellofemoral_r/patellar_flexion_r/speed	/jointset/knee_r/knee_flexion_r/speed	/jointset/knee_r/knee_adduction_r/speed	/jointset/knee_r/knee_rotation_r/speed	/jointset/ankle_r/ankle_angle_r/speed	/jointset/subtalar_r/subtalar_angle_r/speed	/forceset/tau_hip_flexion_r	/forceset/tau_hip_adduction_r	/forceset/tau_hip_rotation_r	/forceset/tau_knee_flexion_r	/forceset/tau_ankle_angle_r	/forceset/tau_subtalar_angle_r	/forceset/tau_lumbar_extension	lambda_cid13_p0	lambda_cid14_p0	lambda_cid14_p1	lambda_cid14_p2	lambda_cid14_p3	lambda_cid14_p4	lambda_cid14_p5	/jointset/ground_pelvis/pelvis_tilt/accel	/jointset/ground_pelvis/pelvis_tx/accel	/jointset/ground_pelvis/pelvis_ty/accel	/jointset/hip_r/hip_flexion_r/accel	/jointset/hip_r/hip_adduction_r/accel	/jointset/hip_r/hip_rotation_r/accel	/jointset/back/lumbar_extension/accel	/jointset/patellofemoral_r/patellar_flexion_r/accel	/jointset/knee_r/knee_flexion_r/accel	/jointset/knee_r/knee_adduction_r/accel	/jointset/knee_r/knee_rotation_r/accel	/jointset/ankle_r/ankle_angle_r/accel	/jointset/subtalar_r/subtalar_angle_r/accel	gamma_cid13_p0	gamma_cid14_p0	gamma_cid14_p1	gamma_cid14_p2	gamma_cid14_p3	gamma_cid14_p4	gamma_cid14_p5
0.5	0.01961735117349501	0.08744071188412829	0.8809668597564476	0.4746975024166721	-0.2250423737042757	-0.1605909064041563	-0.6162164936079049	0.6869269984315455	0.6869269984315505	0.01347600874766247	0.1745313955684508	0.2706012008683548	0.1266806489683568	0.05118977469958887	-0.08401007902305807	-0.1996652235821672	0.7285798403230666	-0.03316786961594222	0.1945247103087696	-0.7489726676289939	1.205121021065775	1.205121021065776	-0.2065235743293284	2.718235359986323e-05	0.4884560362092508	0.1330939491330364	-0.1026050434219789	0.009301494347638342	0.01674434254643179	-0.2494320118377792	-0.03746361310476583	-0.01109753877030465	0.18242040084028	-21.72604004344511	-56.11276520505105	-11.23339455514574	-1.683572918530423	1.773309075127865	-657.0044555565846	59.22647076689739	-0.06585323597517911	0.238173359331018	-0.1318962418999177	-0.6970153191487904	-0.0912821659248679	-0.2156908084724113	1.255018815168941	-0.9662360906984171	-0.9662360906984152	0.4839413401409207	-0.01757447850920404	-0.3126692387015737	-0.1469016534379945	-1.105175081407675e-09	6.070563536584576e-08	4.304844201712782e-07	3.621531396793331e-07	-7.670572451729907e-08	5.41333722927914e-08	8.884658488988191e-08
0.51	0.02012570372851687	0.08661261848558285	0.8789640137718611	0.4819476999452807	-0.22537839993935	-0.1586578074923941	-0.6236422356951198	0.6989282054208316	0.6989282054208313	0.01143415331215574	0.1745316592419246	0.2754695261081086	0.1280043211304042	0.05047705056305161	-0.08159776782229142	-0.2008596427967277	0.7213530695908148	-0.03402908200786938	0.1920856987751763	-0.7360738466371486	1.194951587248626	1.19495158724866	-0.2018306956488913	2.453617220387671e-05	0.4851456393496961	0.131624293112574	-0.1057935964376324	0.0103879833961969	0.01705342524433301	-0.252058771362932	-0.03974117536819	-0.01063340634417304	0.1859672822727591	-21.17941451648411	-56.95470329305168	-11.25759554061892	-1.59021282776032	1.98602649190092	-659.1016354371997	59.26511180014764	-0.07452941478985502	0.2443697189337463	-0.106555098246389	-0.7514898384296606	-0.08220309240855643	-0.2593931446589282	1.32259921783886	-1.067615128082077	-1.067615128077041	0.4645605626337596	0.008310348334879264	-0.3497410691977357	-0.1493172701131175	-2.249741861484851e-09	5.818638401933872e-08	4.311009152389132e-07	3.33184843216838e-07	-7.538548784104586e-08	4.883732065096565e-08	1.107632051436684e-07
0.52	0.02062681955971698	0.08580897014274173	0.8769505555277266	0.4891224333889359	-0.225722770761654	-0.1567493760597432	-0.6309359324770866	0.7108226544517724	0.7108226544517713	0.009439746549581227	0.1745318804608508	0.2803028441473442	0.129312832793495	0.04974242993464043	-0.07912106788219311	-0.2017876754917563	0.7134870233319057	-0.03483678706307465	0.1895912144873369	-0.7225636065794351	1.183769429397125	1.183769429397194	-0.1970338397429105	1.869144239619241e-05	0.4814545961055294	0.1300618493416013	-0.1089821494532867	0.01147447244474806	0.01736250794225823	-0.2546855308880808	-0.04201873763161487	-0.01016927391805458	0.1895141637052386	-20.63118559304879	-57.80112065507467	-11.28284255803703	-1.496386781174516	2.193628542667946	-661.26929111789	59.3002183988192	-0.07023253434987872	0.2510511071972656	-0.07861893799350728	-0.8248704244802572	-0.08058069858046009	-0.2267853593215718	1.377302628342622	-1.168780897568433	-1.16878089756842	0.5047367852496271	-0.01821418819160197	-0.3887985156240771	-0.1654592035400471	-3.456604219770419e-09	5.567759297338381e-08	4.276998214700163e-07	3.025485319188754e-07	-7.403438624718782e-08	4.565754088206836e-08	1.301222082150532e-07
0.53	0.0211205063796416	0.0850303803860417	0.8749291596166143	0.4962153576802644	-0.2260749822259233	-0.1548660900346462	-0.6380916169934095	0.7226003228841548	0.7226003228841423	0.007493886280418645	0.1745320141144567	0.2850973671463912	0.1306052070181288	0.04899341358371884	-0.07658895896255075	-0.2024460432715144	0.7049964688477113	-0.0355956029817541	0.1870534433827379	-0.708485083736128	1.171604365951568	1.171604365951559	-0.1921287018840803	9.533231190442406e-06	0.4773894250896635	0.1283993503405789	-0.1120353421321803	0.01251039007843193	0.01763005209947953	-0.2573413199193872	-0.04425856847038152	-0.009674058154302972	0.1929281432213772	-20.08373393383077	-58.63023359941131	-11.28910504256942	-1.408391982350278	2.416340794601008	-663.3752430329172	59.37637561307712	-0.0774593281283809	0.2554647934433811	-0.05261738162468485	-0.8763460550997908	-0.07196582571706359	-0.2691436592489671	1.436359054798816	-1.264351919080149	-1.26435191909172	0.4849004323355472	0.008019725784444112	-0.4244731405625837	-0.1685916491698624	-5.530076677360832e-09	5.003528594023664e-08	4.055886099834694e-07	2.478633315132978e-07	-6.972072919639941e-08	4.166014708337419e-08	1.471017718755132e-07
0.54	0.02160665840752641	0.084277346520357	0.872902545690973	0.5032203368078118	-0.2264344686068193	-0.1530085558552376	-0.6451038698928041	0.7342515441118774	0.7342515441118497	0.005597377019083471	0.1745321134586353	0.2898494190860797	0.1318805669725959	0.04823547152619108	-0.07400988967912209	-0.2028312783975545	0.6958979905750798	-0.03629177038865825	0.1844408453493437	-0.6938772831938524	1.158479988464784	1.158479988464698	-0.1871636381798218	1.182955476718523e-05	0.4729603842340095	0.126658995308096	-0.1150885348110617	0.01354630771213686	0.01789759625664004	-0.2599971089506923	-0.04649839930913764	-0.00917884239050611	0.1963421227375222	-19.53728302835989	-59.46378526715054	-11.29577833306456	-1.320749983522853	2.632631243972964	-665.5530955503409	59.45296407479584	-0.07201767567102763	0.2604431799544367	-0.02399240724992265	-0.9464551821676224	-0.06805099622538555	-0.241750745080583	1.483158168136328	-1.360643705813618	-1.360643705813623	0.5167219543352592	-0.01592328123513047	-0.4615724835817758	-0.1810304098321667	-8.562351798011938e-09	4.092611015530224e-08	3.627768427242033e-07	1.665708495418482e-07	-6.21293512145391e-08	3.675815903894729e-08	1.614487642728222e-07
0.55	0.02208517906510041	0.08355031841326853	0.8708734407530027	0.510131382297581	-0.2268006925788756	-0.1511771104848907	-0.6519674912348747	0.745766897260207	0.7457668972601572	0.003751183665338244	0.1745321011056684	0.2945553933820268	0.1331379948588789	0.04746891527338583	-0.07138973232755211	-0.2029438529712936	0.6862150984020093	-0.03694216713299607	0.1818342339500032	-0.6787708964555238	1.144441511969703	1.144441511969611	-0.1820706246129381	-1.101298586219652e-05	0.4681785187020953	0.1248152738360241	-0.1179804945019704	0.0145758294902211	0.0181314739399385	-0.262705256489529	-0.04860229287711673	-0.008711709817702109	0.1996012394434324	-18.992144217562	-60.25046091832239	-11.31053094547056	-1.227147814229595	2.838738812415685	-667.6346271114263	59.51154554299742	-0.07893379282955958	0.2636903264304732	0.001995268205105273	-0.9936035818872611	-0.06186020916437973	-0.2722199149813943	1.5357922415178	-1.447816961976871	-1.447816961977844	0.5063033651200827	0.005059569695064556	-0.4948947585443661	-0.1876718813535276	-1.139582962330722e-08	3.266802680343125e-08	3.244275678298831e-07	9.361428630628413e-08	-5.528079494933851e-08	3.256506282910015e-08	1.732035242208316e-07
0.5600000000000001	0.02255604232160766	0.08284966954243009	0.8688445871194233	0.5169427193962252	-0.2271730857574696	-0.1493721519440871	-0.6586777660465941	0.7571373921754113	0.7571373921754233	0.001956062908626354	0.1745319651894056	0.2992118687885498	0.13437665975735	0.04670399131081507	-0.06873404242911776	-0.202781017519359	0.6759563123485205	-0.03752561170238565	0.1791434794458276	-0.663207977123723	1.129508341849763	1.129508341849665	-0.1769491187558451	-1.28831196189707e-05	0.4630606063482571	0.1229063977455951	-0.1208724541929013	0.01560535126824506	0.01836535162392253	-0.2654134040283296	-0.05070618644512718	-0.008244577245062392	0.2028603561493351	-18.44870742992537	-61.0422732949656	-11.32527155473033	-1.134588479023002	3.037184934516025	-669.7995393872874	59.57978089417875	-0.071691217624039	0.2675496893272188	0.03108959788481483	-1.061633958251256	-0.05466056123571463	-0.25857936604766	1.574464686830772	-1.539582430785523	-1.539582430785509	0.5224204123770939	-0.01172879986058411	-0.5287818479666668	-0.1940613335036274	-1.399075069417551e-08	2.543125437123631e-08	2.914332837734981e-07	3.066082555378227e-08	-4.932362474412956e-08	2.922263682074866e-08	1.818476052296815e-07
0.5700000000000001	0.02301925838661338	0.08217572299697364	0.8668187329870327	0.5236486861273268	-0.2275510528353813	-0.1475941488505577	-0.6652302285641435	0.7683542298400966	0.768354229840108	0.0002126332336617665	0.1745317431072941	0.3038154902249804	0.1355957824667904	0.04594073503780301	-0.06605243816488615	-0.2023438891259964	0.6651477829865051	-0.03805667507309406	0.1764468075287132	-0.6472204756464693	1.113719536168071	1.113719536168019	-0.1717324499653955	-2.990079899431161e-05	0.4576093009862602	0.120906997204056	-0.1236318596524983	0.01658724715036061	0.01857805330728904	-0.268069193160356	-0.05282855844696501	-0.007770457096527703	0.2059729030351959	-17.90744115849535	-61.83320496342837	-11.33497867148193	-1.0449386936399	3.274337933221283	-671.8424209788195	59.65470355574011	-0.07841525069413577	0.2688808785112485	0.05691790135547085	-1.103848296831147	-0.05064175702161756	-0.2767772290013141	1.620500489255798	-1.619474782903528	-1.619474782896537	0.5219813788940039	0.003563580379195274	-0.5614680499765817	-0.204509626334744	-1.546604335174284e-08	2.072279645966142e-08	2.658429875948572e-07	-1.055403209686573e-08	-4.519064382112024e-08	2.780129969393605e-08	1.852223680097263e-07
0.58	0.02347488740517819	0.08152867551086738	0.8647986288268346	0.5302438903904783	-0.2279339930534115	-0.1458434257010854	-0.6716208945447033	0.7794089904187537	0.77940899041877	-0.001478491500093565	0.174531401214875	0.3083629659738581	0.1367945851284444	0.04518658202261594	-0.06335423055908007	-0.20163102308087	0.6538038187583066	-0.03852023972513782	0.1736874906332778	-0.6308486697258854	1.097092924644683	1.097092924644678	-0.1664881305143443	-3.684518415993516e-05	0.4518314688378488	0.1188423881882893	-0.1263912651120844	0.01756914303249832	0.01879075499065413	-0.2707249822923787	-0.05495093044879287	-0.007296336947946687	0.2090854499210616	-17.36887634001223	-62.62981265527596	-11.34414344695744	-0.9571299423748353	3.503082368277729	-673.9781482735808	59.74680552052001	-0.06987056605894108	0.2708703576420187	0.08623712823754381	-1.168720931487868	-0.04116081750278401	-0.2711083617119087	1.651325575496894	-1.707143599124703	-1.707143599124701	0.5279505444973687	-0.009714141018580263	-0.5940872052496925	-0.2071030283492098	-1.548321528501129e-08	1.930702722610326e-08	2.498950942337436e-07	-2.345815082416994e-08	-4.343335126562668e-08	2.88818457616856e-08	1.817347628638858e-07
